<svg width="10" height="15" viewBox="0 0 10 15" fill="none" xmlns="http://www.w3.org/2000/svg">
<path d="M5.94666 7.99999L1.22666 12.72C0.978326 12.9698 0.838937 13.3077 0.838937 13.66C0.838937 14.0122 0.978326 14.3502 1.22666 14.6C1.35061 14.725 1.49808 14.8242 1.66056 14.8918C1.82304 14.9595 1.99731 14.9944 2.17333 14.9944C2.34934 14.9944 2.52362 14.9595 2.6861 14.8918C2.84858 14.8242 2.99604 14.725 3.11999 14.6L8.77333 8.94665C8.8983 8.8227 8.99749 8.67524 9.06518 8.51276C9.13287 8.35028 9.16773 8.176 9.16773 7.99999C9.16773 7.82397 9.13287 7.6497 9.06518 7.48722C8.99749 7.32474 8.8983 7.17727 8.77333 7.05332L3.11999 1.33332C2.99541 1.20974 2.84765 1.11198 2.6852 1.04563C2.52275 0.979272 2.3488 0.945637 2.17333 0.946652C1.99785 0.945637 1.8239 0.979272 1.66145 1.04563C1.499 1.11198 1.35125 1.20974 1.22666 1.33332C0.978327 1.58314 0.838938 1.92107 0.838938 2.27332C0.838938 2.62557 0.978327 2.9635 1.22666 3.21332L5.94666 7.99999Z" fill="white"/>
</svg>
